<svg width="22" height="22" viewBox="0 0 22 22" fill="none" xmlns="http://www.w3.org/2000/svg">
<path d="M22 3.7045V18.2954C22 20.7571 20.7572 22 18.2477 22H3.75231C1.25476 22 0 20.7691 0 18.2954V3.7045C0 1.23085 1.25476 0 3.75231 0H18.2477C20.7572 0 22 1.2428 22 3.7045ZM7.51657 4.38565L7.40902 14.2206C7.39708 14.7104 7.95873 14.8538 8.26943 14.5551L10.1456 12.667L12.2488 17.8653C12.3564 18.1042 12.6073 18.2118 12.8343 18.1282L14.0532 17.6382C14.2803 17.5306 14.3639 17.2798 14.2564 17.0407L12.0456 11.9141L14.6986 11.8066C15.1646 11.7946 15.3917 11.3405 15.057 10.994L8.32918 4.063C8.00652 3.7523 7.52852 3.93156 7.51657 4.38565Z" fill="#1C1C1E"/>
</svg>
